<?xml version="1.0" standalone="no"?>
<!DOCTYPE svg PUBLIC "-//W3C//DTD SVG 20010904//EN"
 "http://www.w3.org/TR/2001/REC-SVG-20010904/DTD/svg10.dtd">
<svg version="1.0" xmlns="http://www.w3.org/2000/svg"
 width="320.000000pt" height="320.000000pt" viewBox="0 0 320.000000 320.000000"
 preserveAspectRatio="xMidYMid meet">
<metadata>
Created by potrace 1.11, written by Peter Selinger 2001-2013
</metadata>
<g transform="translate(0.000000,320.000000) scale(0.100000,-0.100000)"
fill="#000000" stroke="none">
<path d="M2930 3196 c0 -3 4 -16 10 -31 12 -32 -3 -66 -50 -110 -58 -55 -58
-59 7 -133 32 -36 77 -79 100 -96 33 -23 58 -57 114 -159 67 -122 71 -132 65
-176 -3 -25 -12 -59 -20 -76 -8 -16 -19 -49 -26 -72 -7 -30 -22 -52 -50 -74
-25 -21 -40 -41 -40 -55 0 -25 -45 -84 -64 -84 -7 0 -27 -18 -44 -40 -39 -47
-183 -120 -253 -128 -45 -4 -46 -3 -96 52 -28 32 -63 80 -78 109 -16 29 -43
69 -62 90 -18 20 -33 47 -33 60 0 12 -21 48 -47 80 l-47 58 -135 -143 c-74
-79 -220 -229 -324 -334 l-189 -191 47 -27 c25 -15 61 -41 80 -58 25 -21 36
-26 39 -16 35 120 85 203 150 247 58 40 121 55 214 49 84 -6 145 -28 221 -80
33 -23 62 -34 101 -38 l54 -5 43 -80 c45 -86 73 -176 73 -237 0 -31 5 -40 29
-52 66 -35 127 -133 160 -259 33 -128 44 -263 39 -506 l-5 -226 34 -39 c18
-22 33 -49 33 -61 0 -11 -13 -95 -30 -185 -16 -90 -30 -166 -30 -167 0 -2 63
-3 140 -3 l140 0 0 1600 0 1600 -135 0 c-74 0 -135 -2 -135 -4z"/>
<path d="M1088 2913 c7 -3 16 -2 19 1 4 3 -2 6 -13 5 -11 0 -14 -3 -6 -6z"/>
<path d="M2009 2563 c-13 -16 -12 -17 4 -4 9 7 17 15 17 17 0 8 -8 3 -21 -13z"/>
<path d="M2528 2452 c-12 -5 -15 -11 -8 -22 7 -12 12 -12 34 -1 39 21 17 40
-26 23z"/>
<path d="M2675 2251 c-16 -3 -29 -11 -27 -16 5 -21 64 -95 75 -95 18 1 94 37
101 48 3 6 -11 24 -31 41 -38 31 -59 35 -118 22z"/>
<path d="M1609 2073 c-13 -16 -12 -17 4 -4 9 7 17 15 17 17 0 8 -8 3 -21 -13z"/>
<path d="M901 1204 c0 -11 3 -14 6 -6 3 7 2 16 -1 19 -3 4 -6 -2 -5 -13z"/>
<path d="M814 858 l-19 -23 23 19 c21 18 27 26 19 26 -2 0 -12 -10 -23 -22z"/>
<path d="M882 655 c0 -16 2 -22 5 -12 2 9 2 23 0 30 -3 6 -5 -1 -5 -18z"/>
</g>
</svg>
